<?xml version="1.0" standalone="no"?>
<!DOCTYPE svg PUBLIC "-//W3C//DTD SVG 20010904//EN"
 "http://www.w3.org/TR/2001/REC-SVG-20010904/DTD/svg10.dtd">
<svg version="1.0" xmlns="http://www.w3.org/2000/svg"
 width="300.000000pt" height="243.000000pt" viewBox="0 0 300.000000 243.000000"
 preserveAspectRatio="xMidYMid meet">
<metadata>
Created by potrace 1.10, written by Peter Selinger 2001-2011
</metadata>
<g transform="translate(0.000000,243.000000) scale(0.050000,-0.050000)"
fill="#000000" stroke="none">
<path d="M2760 3810 l0 -90 140 0 140 0 0 -590 c0 -324 -3 -590 -7 -590 -5 0
-44 13 -88 28 l-80 28 -26 -78 c-30 -92 -35 -84 91 -134 l100 -39 4 -688 c2
-378 0 -678 -5 -667 -28 70 -369 1179 -369 1200 0 18 25 22 90 15 l90 -10 0
92 0 93 -85 0 c-172 1 -152 -34 -352 608 -216 688 -203 601 -92 632 49 14 95
33 101 43 13 21 -29 157 -48 157 -16 0 -611 -185 -622 -194 -8 -5 35 -166 44
-166 2 0 60 17 129 38 69 21 128 32 133 25 4 -7 82 -251 172 -543 91 -291 170
-542 176 -558 8 -22 -8 -25 -83 -14 l-93 14 0 -59 c0 -33 -5 -73 -11 -88 -9
-23 17 -32 113 -42 69 -7 129 -17 133 -22 8 -8 306 -948 375 -1181 37 -125 57
-151 -352 445 -382 556 -363 517 -257 535 l83 14 -13 82 c-16 105 -5 100 -148
66 l-122 -28 -351 508 c-402 582 -375 522 -261 594 l90 57 -45 68 c-24 38 -52
69 -61 69 -15 0 -494 -320 -540 -361 -18 -16 63 -139 92 -139 10 0 57 27 105
60 48 33 96 60 106 60 27 0 668 -937 655 -958 -6 -10 -42 -23 -81 -31 -78 -14
-78 -13 -50 -113 l20 -73 123 29 c67 15 124 25 126 22 3 -3 214 -312 470 -686
558 -816 496 -744 593 -692 102 55 180 53 300 -8 54 -27 99 -50 101 -50 1 0
208 312 459 693 l456 692 62 -73 62 -74 59 45 c32 24 63 47 67 50 4 3 -26 54
-66 113 l-75 108 345 521 344 520 92 -58 92 -59 45 56 c66 82 67 81 -228 275
l-272 180 -47 -60 c-64 -79 -64 -78 62 -162 l111 -73 -34 -52 c-285 -435 -615
-922 -624 -922 -7 0 -31 27 -53 60 -48 71 -63 73 -137 12 l-57 -47 73 -100 72
-101 -403 -613 c-222 -336 -406 -609 -410 -606 -3 3 66 244 154 535 87 292
177 591 200 666 l41 137 67 -52 c85 -64 90 -64 145 14 l45 64 -55 43 c-30 24
-76 60 -102 81 l-47 38 175 580 c201 669 176 620 304 582 l100 -29 24 80 c29
98 66 75 -296 186 -330 101 -344 100 -350 -12 -3 -63 2 -67 101 -97 57 -18
110 -38 116 -45 11 -11 -302 -1093 -322 -1115 -5 -4 -35 11 -67 35 -76 57 -85
56 -137 -15 -55 -75 -59 -62 46 -141 50 -37 90 -80 90 -96 0 -30 -399 -1368
-412 -1382 -5 -5 -8 304 -8 687 l0 695 45 -12 c25 -6 65 -17 89 -24 37 -10
106 82 106 142 0 2 -54 24 -120 48 l-120 44 0 629 0 629 110 0 110 0 0 90 0
90 -340 0 -340 0 0 -90z"/>
</g>
</svg>
