<?xml version="1.0" standalone="no"?>
<!DOCTYPE svg PUBLIC "-//W3C//DTD SVG 20010904//EN"
 "http://www.w3.org/TR/2001/REC-SVG-20010904/DTD/svg10.dtd">
<svg version="1.0" xmlns="http://www.w3.org/2000/svg"
 width="244.000000pt" height="300.000000pt" viewBox="0 0 244.000000 300.000000"
 preserveAspectRatio="xMidYMid meet">
<metadata>
Created by potrace 1.10, written by Peter Selinger 2001-2011
</metadata>
<g transform="translate(0.000000,300.000000) scale(0.050000,-0.050000)"
fill="#000000" stroke="none">
<path d="M1220 5420 l0 -160 519 0 c285 0 523 -7 527 -15 5 -8 -43 -181 -106
-385 -64 -203 -212 -685 -330 -1070 -350 -1144 -419 -1360 -440 -1366 -11 -3
-144 75 -295 174 l-275 180 -82 -121 c-47 -70 -74 -127 -63 -134 318 -204 624
-419 625 -440 0 -15 -40 -155 -88 -310 -214 -682 -435 -1416 -429 -1422 29
-24 284 -92 295 -78 14 16 63 172 384 1217 67 220 125 403 129 408 4 4 119
-66 255 -155 308 -201 295 -197 346 -118 22 36 57 89 76 119 l35 53 -307 205
c-168 112 -308 205 -311 207 -3 3 48 175 113 383 106 339 317 1026 576 1878
51 165 98 307 105 315 7 8 59 -113 115 -270 57 -157 239 -658 407 -1115 167
-456 309 -847 314 -867 8 -27 -53 5 -201 104 l-212 143 -48 -65 c-84 -113
-120 -176 -107 -189 7 -7 177 -121 377 -254 209 -139 376 -263 391 -292 14
-27 98 -248 186 -490 296 -814 446 -1220 452 -1228 8 -10 137 27 233 68 l70
29 -86 235 c-451 1236 -426 1137 -271 1033 l109 -73 51 61 c28 34 67 89 86
122 l36 60 -292 192 c-244 160 -296 203 -323 266 -17 41 -130 345 -250 675
-121 330 -283 771 -359 980 -351 958 -477 1308 -477 1328 0 15 146 22 480 22
l480 0 0 160 0 160 -1210 0 -1210 0 0 -160z"/>
</g>
</svg>
