<?xml version="1.0" standalone="no"?>
<!DOCTYPE svg PUBLIC "-//W3C//DTD SVG 20010904//EN"
 "http://www.w3.org/TR/2001/REC-SVG-20010904/DTD/svg10.dtd">
<svg version="1.0" xmlns="http://www.w3.org/2000/svg"
 width="300.000000pt" height="198.000000pt" viewBox="0 0 300.000000 198.000000"
 preserveAspectRatio="xMidYMid meet">
<metadata>
Created by potrace 1.10, written by Peter Selinger 2001-2011
</metadata>
<g transform="translate(0.000000,198.000000) scale(0.050000,-0.050000)"
fill="#000000" stroke="none">
<path d="M780 3142 l-110 -12 7 -70 c113 -1211 976 -2137 2092 -2243 1269
-121 2214 618 2521 1973 70 310 68 350 -17 350 -37 0 -108 6 -157 12 l-90 13
-34 -185 c-174 -952 -710 -1600 -1485 -1794 -216 -54 -823 -48 -1034 10 -775
214 -1330 922 -1464 1869 -15 106 -1 101 -229 77z"/>
</g>
</svg>
